M48
; DRILL file {KiCad 9.0.2} date 2026-04-17T21:05:47+1000
; FORMAT={-:-/ absolute / metric / decimal}
; #@! TF.CreationDate,2026-04-17T21:05:47+10:00
; #@! TF.GenerationSoftware,Kicad,Pcbnew,9.0.2
; #@! TF.FileFunction,Plated,1,4,PTH
FMAT,2
METRIC
; #@! TA.AperFunction,Plated,PTH,ViaDrill
T1C0.300
; #@! TA.AperFunction,Plated,PTH,ViaDrill
T2C0.400
; #@! TA.AperFunction,Plated,PTH,ComponentDrill
T3C0.600
; #@! TA.AperFunction,Plated,PTH,ViaDrill
T4C0.800
; #@! TA.AperFunction,Plated,PTH,ComponentDrill
T5C1.000
; #@! TA.AperFunction,Plated,PTH,ComponentDrill
T6C3.200
%
G90
G05
T1
X162.2Y-125.2
X162.45Y-91.3
X162.45Y-101.3
X162.45Y-110.5
X162.45Y-121.3
X165.5Y-84.4
X165.5Y-106.0
X168.45Y-91.3
X168.45Y-101.3
X168.45Y-110.5
X168.45Y-120.8
X174.45Y-91.3
X174.45Y-101.3
X174.45Y-111.3
X175.2Y-120.8
T2
X132.8Y-102.55
X145.0Y-94.1
X145.0Y-98.1
X147.0Y-100.3
X147.0Y-112.6
X151.0Y-100.3
X151.0Y-112.6
X152.0Y-94.8
X152.0Y-98.65
X153.0Y-96.11
X155.0Y-91.03
X161.5Y-87.7
X161.5Y-97.7
X161.5Y-107.7
X161.5Y-117.7
X166.0Y-120.3
X166.2Y-115.2
X167.5Y-87.7
X167.5Y-97.7
X167.5Y-107.7
X167.5Y-117.7
X171.0Y-100.3
X171.6Y-110.3
X171.8Y-90.3
X172.2Y-120.3
X173.5Y-87.7
X173.5Y-97.7
X173.5Y-107.7
X173.5Y-117.7
T3
X126.5Y-95.11
X126.5Y-96.38
X126.5Y-97.65
X126.5Y-98.92
X126.5Y-100.19
X126.5Y-101.46
X126.5Y-102.73
X126.5Y-104.0
X126.5Y-105.27
X126.5Y-106.54
X126.5Y-107.81
X126.5Y-109.08
X126.5Y-110.35
X126.5Y-111.62
X126.5Y-112.89
T4
X132.0Y-99.45
X163.5Y-83.41
X164.5Y-106.5
X169.7Y-132.4
T5
X138.61Y-80.87
X138.61Y-83.41
X138.61Y-85.95
X138.61Y-88.49
X138.61Y-91.03
X138.61Y-93.57
X138.61Y-96.11
X138.61Y-98.65
X138.61Y-101.19
X138.61Y-103.73
X138.61Y-106.27
X138.61Y-108.81
X138.61Y-111.35
X138.61Y-113.89
X138.61Y-116.43
X138.61Y-118.97
X138.61Y-121.51
X138.61Y-124.05
X138.61Y-126.59
X138.61Y-129.13
X156.39Y-80.87
X156.39Y-83.41
X156.39Y-85.95
X156.39Y-88.49
X156.39Y-91.03
X156.39Y-93.57
X156.39Y-96.11
X156.39Y-98.65
X156.39Y-101.19
X156.39Y-103.73
X156.39Y-106.27
X156.39Y-108.81
X156.39Y-111.35
X156.39Y-113.89
X156.39Y-116.43
X156.39Y-118.97
X156.39Y-121.51
X156.39Y-124.05
X156.39Y-126.59
X156.39Y-129.13
X179.5Y-85.19
X179.5Y-87.73
X179.5Y-90.27
X179.5Y-92.81
X179.5Y-95.19
X179.5Y-97.73
X179.5Y-100.27
X179.5Y-102.81
X179.5Y-105.19
X179.5Y-107.73
X179.5Y-110.27
X179.5Y-112.81
X179.5Y-115.19
X179.5Y-117.73
X179.5Y-120.27
X179.5Y-122.81
T6
X129.5Y-80.5
X129.5Y-129.5
X177.0Y-80.5
X177.0Y-129.5
M30
